# xmcd
#
# Track frame offsets: 
#        183
#        14218
#        40950
#        79143
#
# Disc length: 1439 seconds
#
# Revision: 2
# Processed by: cddbd v1.5.2PL0 Copyright (c) Steve Scherf et al.
# Submitted via: ExactAudioCopy v0.95a4
#
DISCID=2e059d04
DTITLE=Dajae - U got me up
DYEAR=1993
DGENRE=house
TTITLE0=U got me up (Radio mix)
TTITLE1=U got me up (Cajmere's underground goodies mix)
TTITLE2=U got me up (Original)
TTITLE3=U got me up (Instrumental)
EXTD=
EXTT0=
EXTT1=
EXTT2=
EXTT3=
PLAYORDER=
